<?xml version="1.0" encoding="iso-8859-1"?>
<!-- Generator: Adobe Illustrator 16.0.0, SVG Export Plug-In . SVG Version: 6.00 Build 0)  -->
<!DOCTYPE svg PUBLIC "-//W3C//DTD SVG 1.1//EN" "http://www.w3.org/Graphics/SVG/1.1/DTD/svg11.dtd">
<svg version="1.1" id="Capa_1" xmlns="http://www.w3.org/2000/svg" xmlns:xlink="http://www.w3.org/1999/xlink" x="0px" y="0px"
	 width="578.119px" height="578.119px" viewBox="0 0 578.119 578.119" style="enable-background:new 0 0 578.119 578.119;"
	 xml:space="preserve">
<g>
	<g>
		<path d="M559.193,479.955c-23.053,3.269-45.496,0.094-67.867-4.773c-15.471-3.366-30.943-6.793-46.275-10.727
			c-6.145-1.579-11.922-4.586-18.123-7.046c3.59-11.763,1.477-21.828-3.281-31.645c-4.904-10.114-7.98-21.514-14.537-30.363
			c-33.064-44.631-73.5-80.731-125.162-102.873c-13.933-5.973-24.77-14.807-32.003-28.442c-7.083-13.35-14.892-26.344-22.975-39.123
			c-9.343-14.773-18.687-29.629-29.225-43.546c-9.515-12.562-12.603-27.25-17.193-41.587c-2.844-8.895-6.177-17.63-9.352-26.418
			c-4.431-12.281-13.301-19.543-25.712-23.048c-8.237-2.326-16.348-5.1-24.517-7.675l-18.748,0.625
			c-16.242,6.891-32.889,7.165-50.008,3.819c-9.352-1.828-14.231,3.86-11.93,13.195c0.783,3.17,2.195,6.569,4.333,8.956
			c9.739,10.877,20.065,21.236,29.658,32.236c2.509,2.876,4.614,7.503,4.341,11.13c-0.693,9.282-2.844,18.454-4.386,27.675
			c-1.657,9.902-5.186,19.935-4.517,29.682c1.228,17.903,4.435,35.733,7.744,53.416c3.305,17.667,8.197,35.036,11.506,52.702
			c1.791,9.555,3.872,19.869,2.081,29.119c-4.325,22.321-11.188,44.137-16.32,66.32c-1.938,8.376-5.753,14.753-13.068,18.796
			c-12.224,6.757-24.492,13.432-36.769,20.099c-1.889,0.347-3.566,1.236-4.737,2.57c-7.385,4.007-14.77,8.013-22.15,12.027
			l0.098,2.885c39.702-3.692,79.409-7.396,119.115-11.057c6.757-0.62,10.628-4.108,13.036-10.519c3.754-10,8.335-19.689,12.864-30.2
			c10.559,10.539,22.901,16.512,36.438,20.646c33.713,10.294,68.254,15.81,103.277,18.723c7.81,0.648,15.623,1.208,23.441,1.767
			c1.969,0.951,3.945,1.905,5.914,2.856c-2.582,1.685-5.238,2.855-8.012,3.325c-25.517,4.296-50.135,13.297-76.341,14.051
			c-12.232,0.355-24.459,1.563-36.638,2.844c-4.917,0.515-9.71,2.248-14.558,3.428l0.396,2.146c4.395,0.27,8.891,0.045,13.162,0.918
			c6.471,1.322,12.844,4.48,19.221,5.162c0.856,0.518,1.914,0.819,3.194,0.746l14.17-0.808c36.157-0.478,72.31-1.403,108.451-2.579
			c9.225-0.302,18.91-1.158,25.627-9.343c0.631-0.771,2.023-1.134,3.117-1.273c7.332-0.922,14.672-1.729,20.893-2.447
			c3.371,3.37,5.871,8.147,9.258,8.89c25.504,5.606,51.021,12.734,77.512,6.324c5.52-1.334,10.967-1.967,16.354-1.958
			c5.283,0.722,10.578,1.354,15.883,1.922c4.035,0.967,8.037,2.272,12.016,3.929l28.842-0.963c5.561-1.946,11.125-3.868,16.68-5.839
			c4.912-1.746,9.807-3.541,14.711-5.312l-0.049-1.44C571.775,481.163,565.275,479.094,559.193,479.955z"/>
	</g>
</g>
<g>
</g>
<g>
</g>
<g>
</g>
<g>
</g>
<g>
</g>
<g>
</g>
<g>
</g>
<g>
</g>
<g>
</g>
<g>
</g>
<g>
</g>
<g>
</g>
<g>
</g>
<g>
</g>
<g>
</g>
</svg>
